#include "hUGEDriver.h"
#include <stddef.h>

static const unsigned char order_cnt = 2;

static const unsigned char P0[] = {
    DN(___,0,0xE00),
    DN(___,0,0x000),
    DN(___,0,0x000),
    DN(___,0,0x000),
    DN(D_5,1,0x000),
    DN(Ds5,1,0x000),
    DN(Ds5,1,0x000),
    DN(A_5,1,0x000),
    DN(___,0,0xE03),
    DN(___,0,0x000),
    DN(___,0,0x000),
    DN(___,0,0x000),
    DN(Ds5,1,0x000),
    DN(___,0,0x000),
    DN(Ds5,1,0x000),
    DN(___,0,0xE03),
    DN(F_5,1,0x000),
    DN(___,0,0x000),
    DN(A_5,1,0x000),
    DN(___,0,0xE03),
    DN(___,0,0x000),
    DN(___,0,0x000),
    DN(___,0,0x000),
    DN(___,0,0x000),
    DN(A_5,1,0x000),
    DN(G_5,1,0x000),
    DN(G_4,1,0x000),
    DN(G_5,1,0x000),
    DN(___,0,0xE03),
    DN(___,0,0x000),
    DN(___,0,0x000),
    DN(___,0,0x000),
    DN(___,0,0x000),
    DN(___,0,0x000),
    DN(___,0,0x000),
    DN(___,0,0x000),
    DN(D_5,1,0x000),
    DN(Ds5,1,0x000),
    DN(Ds5,1,0x000),
    DN(A_5,1,0x000),
    DN(___,0,0xE03),
    DN(___,0,0x000),
    DN(___,0,0x000),
    DN(___,0,0x000),
    DN(___,0,0x000),
    DN(___,0,0x000),
    DN(___,0,0x000),
    DN(___,0,0x000),
    DN(D_5,1,0x000),
    DN(Ds5,1,0x000),
    DN(Ds5,1,0x000),
    DN(A_5,1,0x000),
    DN(___,0,0xE03),
    DN(___,0,0x000),
    DN(___,0,0x000),
    DN(___,0,0x000),
    DN(___,0,0x000),
    DN(___,0,0x000),
    DN(___,0,0x000),
    DN(___,0,0x000),
    DN(G_5,1,0x000),
    DN(A_5,1,0x000),
    DN(___,0,0x000),
    DN(C_5,1,0x000),
};
static const unsigned char P1[] = {
    DN(D_4,7,0x000),
    DN(___,0,0x000),
    DN(___,0,0x000),
    DN(___,0,0x000),
    DN(D_4,7,0x000),
    DN(___,0,0x000),
    DN(___,0,0x000),
    DN(___,0,0x000),
    DN(Ds4,7,0x000),
    DN(___,0,0x000),
    DN(___,0,0x000),
    DN(___,0,0x000),
    DN(Ds4,7,0x000),
    DN(___,0,0x000),
    DN(___,0,0x000),
    DN(___,0,0x000),
    DN(F_4,7,0x000),
    DN(___,0,0x000),
    DN(___,0,0x000),
    DN(___,0,0x000),
    DN(Ds4,7,0x000),
    DN(___,0,0x000),
    DN(F_4,7,0x000),
    DN(___,0,0x000),
    DN(D_4,7,0x000),
    DN(___,0,0x000),
    DN(___,0,0x000),
    DN(___,0,0x000),
    DN(Ds4,7,0x000),
    DN(___,0,0x000),
    DN(___,0,0x000),
    DN(___,0,0x000),
    DN(Ds4,7,0x000),
    DN(___,0,0x000),
    DN(___,0,0x000),
    DN(___,0,0x000),
    DN(D_4,7,0x000),
    DN(___,0,0x000),
    DN(___,0,0x000),
    DN(___,0,0x000),
    DN(D_4,7,0x000),
    DN(___,0,0x000),
    DN(___,0,0x000),
    DN(___,0,0x000),
    DN(C_4,7,0x000),
    DN(___,0,0x000),
    DN(___,0,0x000),
    DN(___,0,0x000),
    DN(D_4,7,0x000),
    DN(___,0,0x000),
    DN(C_4,7,0x000),
    DN(___,0,0x000),
    DN(Ds4,7,0x000),
    DN(___,0,0x000),
    DN(___,0,0x000),
    DN(___,0,0x000),
    DN(Ds4,7,0x000),
    DN(___,0,0x000),
    DN(___,0,0x000),
    DN(___,0,0x000),
    DN(G_4,7,0x000),
    DN(___,0,0x000),
    DN(___,0,0x000),
    DN(___,0,0x000),
};
static const unsigned char P2[] = {
    DN(D_3,1,0xC07),
    DN(___,0,0x000),
    DN(___,0,0x000),
    DN(___,0,0x000),
    DN(D_3,1,0xC07),
    DN(___,0,0x000),
    DN(___,0,0x000),
    DN(___,0,0x000),
    DN(As3,1,0xC07),
    DN(___,0,0x000),
    DN(___,0,0x000),
    DN(___,0,0x000),
    DN(C_3,1,0xC07),
    DN(___,0,0x000),
    DN(___,0,0x000),
    DN(___,0,0x000),
    DN(D_3,1,0xC07),
    DN(___,0,0x000),
    DN(___,0,0x000),
    DN(___,0,0x000),
    DN(D_3,1,0xC07),
    DN(___,0,0x000),
    DN(___,0,0x000),
    DN(___,0,0x000),
    DN(As3,1,0xC07),
    DN(___,0,0x000),
    DN(___,0,0x000),
    DN(___,0,0x000),
    DN(C_3,1,0xC07),
    DN(___,0,0x000),
    DN(___,0,0x000),
    DN(___,0,0x000),
    DN(D_3,1,0xC07),
    DN(___,0,0x000),
    DN(___,0,0x000),
    DN(___,0,0x000),
    DN(D_3,1,0xC07),
    DN(___,0,0x000),
    DN(___,0,0x000),
    DN(___,0,0x000),
    DN(As3,1,0xC07),
    DN(___,0,0x000),
    DN(___,0,0x000),
    DN(___,0,0x000),
    DN(C_3,1,0xC07),
    DN(___,0,0x000),
    DN(___,0,0x000),
    DN(___,0,0x000),
    DN(D_3,1,0xC07),
    DN(___,0,0x000),
    DN(___,0,0x000),
    DN(___,0,0x000),
    DN(D_3,1,0xC07),
    DN(___,0,0x000),
    DN(___,0,0x000),
    DN(___,0,0x000),
    DN(As3,1,0xC07),
    DN(___,0,0x000),
    DN(___,0,0x000),
    DN(___,0,0x000),
    DN(C_3,1,0xC07),
    DN(___,0,0x000),
    DN(___,0,0x000),
    DN(___,0,0x000),
};
static const unsigned char P3[] = {
    DN(A_6,1,0xC03),
    DN(___,0,0x000),
    DN(A_6,1,0xC03),
    DN(___,0,0x000),
    DN(A_6,1,0xC03),
    DN(___,0,0x000),
    DN(A_6,1,0xC03),
    DN(___,0,0x000),
    DN(A_6,1,0xC03),
    DN(___,0,0x000),
    DN(A_6,1,0xC03),
    DN(___,0,0x000),
    DN(A_6,1,0xC03),
    DN(___,0,0x000),
    DN(A_6,1,0xC03),
    DN(___,0,0x000),
    DN(A_6,1,0xC03),
    DN(___,0,0x000),
    DN(A_6,1,0xC03),
    DN(___,0,0x000),
    DN(A_6,1,0xC03),
    DN(___,0,0x000),
    DN(A_6,1,0xC03),
    DN(___,0,0x000),
    DN(A_6,1,0xC03),
    DN(___,0,0x000),
    DN(A_6,1,0xC03),
    DN(___,0,0x000),
    DN(A_6,1,0xC03),
    DN(___,0,0x000),
    DN(A_6,1,0xC03),
    DN(___,0,0x000),
    DN(A_6,1,0xC03),
    DN(___,0,0x000),
    DN(A_6,1,0xC03),
    DN(___,0,0x000),
    DN(A_6,1,0xC03),
    DN(___,0,0x000),
    DN(A_6,1,0xC03),
    DN(___,0,0x000),
    DN(A_6,1,0xC03),
    DN(___,0,0x000),
    DN(A_6,1,0xC03),
    DN(___,0,0x000),
    DN(A_6,1,0xC03),
    DN(___,0,0x000),
    DN(A_6,1,0xC03),
    DN(___,0,0x000),
    DN(A_6,1,0xC03),
    DN(___,0,0x000),
    DN(A_6,1,0xC03),
    DN(___,0,0x000),
    DN(A_6,1,0xC03),
    DN(___,0,0x000),
    DN(A_6,1,0xC03),
    DN(___,0,0x000),
    DN(A_6,1,0xC03),
    DN(___,0,0x000),
    DN(A_6,1,0xC03),
    DN(___,0,0x000),
    DN(A_6,1,0xC03),
    DN(___,0,0x000),
    DN(___,0,0x000),
    DN(___,0,0x000),
};

static const unsigned char* const order1[] = {P0};
static const unsigned char* const order2[] = {P1};
static const unsigned char* const order3[] = {P2};
static const unsigned char* const order4[] = {P3};

static const hUGEDutyInstr_t duty_instruments[] = {
    {8,0,240,0,128},
    {8,64,240,0,128},
    {8,128,240,0,128},
    {8,192,240,0,128},
    {8,0,241,0,128},
    {8,64,241,0,128},
    {8,128,241,0,128},
};
static const hUGEWaveInstr_t wave_instruments[] = {
    {0,32,0,0,128},
};
static const hUGENoiseInstr_t noise_instruments[] = {
    {241,0,100,0,0},
};

static const unsigned char waves[] = {
    0,0,255,255,255,255,255,255,255,255,255,255,255,255,255,255,
};

const hUGESong_t bg_building = {7, &order_cnt, order1, order2, order3,order4, duty_instruments, wave_instruments, noise_instruments, NULL, waves};
